<svg width="25" height="24" viewBox="0 0 25 24" fill="none" xmlns="http://www.w3.org/2000/svg">
<path fill-rule="evenodd" clip-rule="evenodd" d="M12.5 1C10.9374 1 9.44843 1.32642 8.09963 1.91573C7.59354 2.13685 7.36253 2.72637 7.58365 3.23246C7.80477 3.73855 8.39428 3.96956 8.90037 3.74844C10.0014 3.26737 11.2182 3 12.5 3C17.4706 3 21.5 7.02944 21.5 12C21.5 16.9706 17.4706 21 12.5 21C7.52944 21 3.5 16.9706 3.5 12C3.5 9.97237 4.16932 8.10395 5.29949 6.5997C5.63124 6.15815 5.54222 5.53127 5.10067 5.19953C4.65913 4.86779 4.03225 4.9568 3.70051 5.39835C2.31903 7.23708 1.5 9.52433 1.5 12C1.5 18.0751 6.42487 23 12.5 23C18.5751 23 23.5 18.0751 23.5 12C23.5 5.92487 18.5751 1 12.5 1ZM14.2071 8.29289C13.8166 7.90237 13.1834 7.90237 12.7929 8.29289C12.4024 8.68342 12.4024 9.31658 12.7929 9.70711L14.0858 11H8.5C7.94772 11 7.5 11.4477 7.5 12C7.5 12.5523 7.94772 13 8.5 13H14.0858L12.7929 14.2929C12.4024 14.6834 12.4024 15.3166 12.7929 15.7071C13.1834 16.0976 13.8166 16.0976 14.2071 15.7071L17.2071 12.7071C17.5976 12.3166 17.5976 11.6834 17.2071 11.2929L14.2071 8.29289Z" fill="white"/>
</svg>
