<svg width="20" height="20" viewBox="0 0 20 20" fill="none" xmlns="http://www.w3.org/2000/svg">
<path d="M10.1353 19.1667C11.2785 19.1667 12.2275 18.3255 12.3784 17.2256H7.89209C8.04299 18.3256 8.99206 19.1667 10.1352 19.1667H10.1353Z" fill="white"/>
<path d="M17.3393 15.3922C17.3393 15.004 17.1452 14.6372 16.8001 14.3999C16.7138 14.3567 16.649 14.292 16.5628 14.2058H7.7627C7.52544 14.2058 7.33136 14.0117 7.33136 13.7745C7.33136 13.5372 7.52545 13.3432 7.7627 13.3432H15.9589C15.5275 12.4588 15.2039 11.0137 15.2039 8.61957C15.2039 5.34107 13.2842 3.98227 11.7528 3.39991C11.8176 3.20583 11.8608 2.99007 11.8608 2.77449C11.8608 1.69605 10.9981 0.833374 9.91969 0.833374C8.84125 0.833374 7.97857 1.69605 7.97857 2.77449C7.97857 2.99024 8.02175 3.20583 8.08645 3.39991C6.55498 3.98231 4.63535 5.34103 4.63535 8.61957C4.63535 12.4804 3.77268 13.8824 3.03922 14.3785C2.71575 14.5942 2.5 14.9609 2.5 15.3707C2.5 16.0178 3.03922 16.557 3.68632 16.557H16.1747C16.8218 16.5785 17.3393 16.0393 17.3393 15.3922ZM9.91959 1.69594C10.5235 1.69594 10.998 2.17045 10.998 2.77438C10.998 2.90377 10.9765 3.03316 10.9333 3.16254C10.0707 2.94679 9.29415 3.07633 8.90583 3.16254C8.8628 3.03315 8.84114 2.90376 8.84114 2.77438C8.84114 2.17045 9.31567 1.69594 9.91959 1.69594ZM6.46866 13.8608C6.46866 13.8823 6.44714 13.9255 6.44714 13.947C6.44714 13.9685 6.42563 13.9902 6.40396 14.0117C6.38245 14.0332 6.38245 14.0549 6.36078 14.0764C6.25291 14.1627 6.14503 14.2058 6.03731 14.2058C5.97262 14.2058 5.92944 14.2058 5.86474 14.1626C5.82156 14.1411 5.75687 14.1194 5.73535 14.0764C5.71384 14.0549 5.69217 14.0332 5.69217 14.0117C5.67066 13.9902 5.67066 13.9685 5.64899 13.947C5.62748 13.9255 5.62748 13.9038 5.62748 13.8608V13.7746V13.6884C5.62748 13.6668 5.64899 13.6237 5.64899 13.6021C5.64899 13.5806 5.6705 13.559 5.69217 13.5374C5.71369 13.5159 5.71368 13.4943 5.73535 13.4727C5.84323 13.3649 5.97262 13.3217 6.12351 13.3649C6.14503 13.3649 6.16669 13.3864 6.20972 13.3864C6.23124 13.4079 6.2529 13.4079 6.27442 13.4296C6.29593 13.4511 6.3176 13.4727 6.33911 13.4727C6.36063 13.4943 6.38229 13.5159 6.38229 13.5374C6.40381 13.559 6.40381 13.5806 6.42547 13.6021C6.44699 13.6237 6.44699 13.6453 6.44699 13.6883V13.7746C6.44699 13.7961 6.46866 13.8391 6.46866 13.8608Z" fill="white"/>
</svg>
