<svg width="114" height="80" viewBox="0 0 114 80" fill="none" xmlns="http://www.w3.org/2000/svg">
<path d="M109.273 21.8398C108.956 20.0428 108.449 18.2553 107.735 16.4944C102.248 2.95119 86.8796 -3.55133 73.4064 1.96225C69.5534 3.54195 66.276 5.93744 63.685 8.86564L50.3165 8.86478C47.7252 5.93724 44.4478 3.54281 40.5951 1.96138C27.1221 -3.55043 11.7536 2.9513 6.26637 16.4935C5.5536 18.2552 5.04668 20.0436 4.7259 21.8389L0.925232 62.4474C0.947532 69.8578 2.71016 76.212 9.03928 78.8066C9.16108 78.8558 9.28288 78.8912 9.40209 78.9377C9.5196 78.9912 9.63539 79.0481 9.75548 79.099C16.0846 81.6901 21.7653 78.3833 26.9306 73.0991L49.3626 45.2012H64.6378L87.072 73.0991C92.2338 78.3833 97.9163 81.691 104.245 79.099C104.367 79.0481 104.479 78.9912 104.597 78.9377C104.717 78.8912 104.841 78.8558 104.961 78.8066C111.29 76.212 113.054 69.8596 113.075 62.4474L109.273 21.8398ZM43.0704 29.6133C43.0704 30.5972 42.2753 31.3983 41.2949 31.3983H33.0135V39.7237C33.0135 40.7136 32.2184 41.5086 31.2381 41.5086H27.2453C26.2657 41.5086 25.4698 40.7145 25.4698 39.7237L25.4681 31.3974H17.1834C16.2073 31.3974 15.4079 30.5972 15.4079 29.6125V25.5993C15.4079 24.612 16.2065 23.8169 17.1834 23.8169H25.4681V15.4889C25.4681 14.5015 26.2632 13.7039 27.2435 13.7039H31.2363C32.2159 13.7039 33.0118 14.5016 33.0118 15.4889V23.8169H41.2932C42.2744 23.8169 43.0687 24.612 43.0687 25.5993L43.0704 29.6133ZM75.2604 31.9389C72.8761 31.9389 70.9436 29.9962 70.9436 27.6032C70.9436 25.2053 72.876 23.2625 75.2604 23.2625C77.6433 23.2625 79.5747 25.2052 79.5747 27.6032C79.5739 29.9961 77.6431 31.9389 75.2604 31.9389ZM84.7649 41.4966C82.3846 41.4966 80.4471 39.5512 80.4471 37.1593C80.4471 34.7638 82.3847 32.8212 84.7649 32.8212C87.1501 32.8212 89.0826 34.764 89.0826 37.1593C89.0826 39.5513 87.1502 41.4966 84.7649 41.4966ZM84.7649 22.3821C82.3846 22.3821 80.4471 20.4394 80.4471 18.0414C80.4471 15.6459 82.3847 13.7033 84.7649 13.7033C87.1501 13.7033 89.0826 15.646 89.0826 18.0414C89.0826 20.4394 87.1502 22.3821 84.7649 22.3821ZM94.2728 31.9389C91.8875 31.9389 89.955 29.9962 89.955 27.6032C89.955 25.2053 91.8875 23.2625 94.2728 23.2625C96.6572 23.2625 98.5897 25.2052 98.5897 27.6032C98.5897 29.9961 96.6572 31.9389 94.2728 31.9389Z" fill="#0A63EA"/>
</svg>
