<svg width="20" height="20" viewBox="0 0 20 20" fill="none" xmlns="http://www.w3.org/2000/svg">
<path fill-rule="evenodd" clip-rule="evenodd" d="M9.99984 0.916626C4.98325 0.916626 0.916504 4.98337 0.916504 9.99996C0.916504 15.0165 4.98325 19.0833 9.99984 19.0833C15.0164 19.0833 19.0832 15.0165 19.0832 9.99996C19.0832 4.98337 15.0164 0.916626 9.99984 0.916626ZM6.74974 8.11947C6.74974 6.90287 7.73598 5.91663 8.95258 5.91663H9.24973V5.41663C9.24973 5.00241 9.58552 4.66663 9.99973 4.66663C10.4139 4.66663 10.7497 5.00241 10.7497 5.41663V5.91663H10.8331C12.1678 5.91663 13.2497 6.9986 13.2497 8.33329C13.2497 8.74751 12.9139 9.08329 12.4997 9.08329C12.0855 9.08329 11.7497 8.74751 11.7497 8.33329C11.7497 7.82703 11.3393 7.41663 10.8331 7.41663H10.7497V9.45939L11.7435 9.79064C12.643 10.0905 13.2497 10.9323 13.2497 11.8804C13.2497 13.097 12.2635 14.0833 11.0469 14.0833H10.7497V14.5833C10.7497 14.9975 10.4139 15.3333 9.99973 15.3333C9.58552 15.3333 9.24973 14.9975 9.24973 14.5833V14.0833H9.1664C7.83171 14.0833 6.74974 13.0013 6.74974 11.6666C6.74974 11.2524 7.08552 10.9166 7.49974 10.9166C7.91395 10.9166 8.24974 11.2524 8.24974 11.6666C8.24974 12.1729 8.66014 12.5833 9.1664 12.5833H9.24973V10.5405L8.25598 10.2093C7.35647 9.90944 6.74974 9.06765 6.74974 8.11947ZM9.24973 8.95939V7.41663H8.95258C8.56441 7.41663 8.24974 7.7313 8.24974 8.11947C8.24974 8.422 8.44332 8.69059 8.73032 8.78625L9.24973 8.95939ZM10.7497 11.0405V12.5833H11.0469C11.4351 12.5833 11.7497 12.2686 11.7497 11.8804C11.7497 11.5779 11.5562 11.3093 11.2691 11.2137L10.7497 11.0405Z" fill="#55AD0F"/>
</svg>
