<svg width="20" height="20" viewBox="0 0 20 20" fill="none" xmlns="http://www.w3.org/2000/svg">
<path fill-rule="evenodd" clip-rule="evenodd" d="M10.9169 2.41761C10.7996 2.41684 10.6659 2.41664 10.512 2.41664H8.13352C7.28106 2.41664 6.68683 2.41723 6.2242 2.45503C5.77032 2.49211 5.50956 2.56124 5.31204 2.66188C4.88868 2.87759 4.54447 3.2218 4.32875 3.64517C4.22811 3.84268 4.15898 4.10345 4.1219 4.55732C4.0841 5.01996 4.08352 5.61419 4.08352 6.46664V13.5333C4.08352 14.3858 4.0841 14.98 4.1219 15.4426C4.15898 15.8965 4.22811 16.1573 4.32875 16.3548C4.54447 16.7782 4.88868 17.1224 5.31204 17.3381C5.50956 17.4387 5.77032 17.5078 6.2242 17.5449C6.68683 17.5827 7.28106 17.5833 8.13351 17.5833H11.8669C12.7193 17.5833 13.3135 17.5827 13.7762 17.5449C14.23 17.5078 14.4908 17.4387 14.6883 17.3381C15.1117 17.1224 15.4559 16.7782 15.6716 16.3548C15.7723 16.1573 15.8414 15.8965 15.8785 15.4426C15.9163 14.98 15.9169 14.3858 15.9169 13.5333V7.82154C15.9169 7.66757 15.9167 7.53391 15.9159 7.41667H14.8669H14.8364H14.8364C14.3022 7.41668 13.8564 7.41669 13.4922 7.38693C13.1123 7.35589 12.7556 7.28878 12.4184 7.11694C11.9009 6.85328 11.4802 6.43259 11.2166 5.91514C11.0447 5.57788 10.9776 5.22122 10.9466 4.84134C10.9168 4.47711 10.9168 4.03126 10.9169 3.4971V3.46667V2.41761ZM15.5952 5.91667C15.5919 5.91121 15.5886 5.90576 15.5853 5.90033C15.4569 5.69087 15.2747 5.50185 14.7306 4.95775L13.3757 3.60286C12.8316 3.05876 12.6426 2.87656 12.4332 2.7482C12.4277 2.74488 12.4223 2.74158 12.4169 2.7383V3.46667C12.4169 4.0391 12.4174 4.42331 12.4416 4.71919C12.4651 5.00631 12.507 5.1436 12.5531 5.23416C12.6729 5.46936 12.8642 5.66059 13.0994 5.78043C13.1899 5.82657 13.3272 5.86845 13.6143 5.89191C13.9102 5.91609 14.2944 5.91667 14.8669 5.91667H15.5952ZM10.5974 0.916626H10.5974L10.512 0.916644H8.13352L8.10141 0.916644C7.28858 0.916637 6.63296 0.916631 6.10205 0.960008C5.55541 1.00467 5.07527 1.09903 4.63105 1.32537C3.92545 1.68489 3.35177 2.25857 2.99224 2.96418C2.7659 3.4084 2.67154 3.88854 2.62688 4.43518C2.58351 4.96609 2.58351 5.6217 2.58352 6.43454L2.58352 6.46664V13.5333L2.58352 13.5654C2.58351 14.3783 2.58351 15.0339 2.62688 15.5648C2.67154 16.1114 2.7659 16.5916 2.99224 17.0358C3.35177 17.7414 3.92545 18.3151 4.63105 18.6746C5.07527 18.9009 5.55541 18.9953 6.10205 19.0399C6.63295 19.0833 7.28856 19.0833 8.10139 19.0833H8.13351H11.8669H11.899C12.7118 19.0833 13.3674 19.0833 13.8983 19.0399C14.445 18.9953 14.9251 18.9009 15.3693 18.6746C16.0749 18.3151 16.6486 17.7414 17.0081 17.0358C17.2345 16.5916 17.3288 16.1114 17.3735 15.5648C17.4169 15.0339 17.4169 14.3783 17.4169 13.5654V13.5333V7.82154L17.4169 7.73608V7.73606C17.4171 7.08451 17.4172 6.63351 17.3132 6.20053C17.2214 5.8179 17.0699 5.4521 16.8643 5.11658C16.6316 4.73692 16.3126 4.4181 15.8517 3.95751L15.7913 3.89709L14.4364 2.5422L14.376 2.48176L14.376 2.48176C13.9154 2.0209 13.5966 1.7019 13.2169 1.46924C12.8814 1.26364 12.5156 1.11212 12.133 1.02026C11.7 0.91631 11.249 0.916439 10.5974 0.916626ZM7.50019 9.24998C7.08597 9.24998 6.75019 9.58576 6.75019 9.99998C6.75019 10.4142 7.08597 10.75 7.50019 10.75H12.5002C12.9144 10.75 13.2502 10.4142 13.2502 9.99998C13.2502 9.58576 12.9144 9.24998 12.5002 9.24998H7.50019ZM7.50019 12.5833C7.08597 12.5833 6.75019 12.9191 6.75019 13.3333C6.75019 13.7475 7.08597 14.0833 7.50019 14.0833H10.8335C11.2477 14.0833 11.5835 13.7475 11.5835 13.3333C11.5835 12.9191 11.2477 12.5833 10.8335 12.5833H7.50019Z" fill="white"/>
</svg>
