<svg width="20" height="20" viewBox="0 0 20 20" fill="none" xmlns="http://www.w3.org/2000/svg">
<path d="M14.6954 7.69446C13.6106 7.69446 12.7632 8.57581 12.7632 9.62664C12.7632 10.7114 13.6445 11.5588 14.6954 11.5588C15.7462 11.5588 16.6276 10.6775 16.6276 9.62664C16.6276 8.57581 15.7801 7.69446 14.6954 7.69446ZM14.6954 10.2368C14.3903 10.2368 14.1191 9.96562 14.1191 9.66054C14.1191 9.35546 14.3903 9.08428 14.6954 9.08428C15.0005 9.08428 15.2716 9.35546 15.2716 9.66054C15.2716 9.96562 15.0343 10.2368 14.6954 10.2368Z" fill="white"/>
<path d="M6.62754 9.18599H6.01737V8.9148V8.60972C6.01737 8.27074 5.71229 7.93176 5.33941 7.93176C4.96653 7.93176 4.66145 8.23684 4.66145 8.60972V9.21989H4.39027H4.08519C3.74621 9.21989 3.40723 9.52497 3.40723 9.89785C3.40723 10.2707 3.71231 10.5758 4.08519 10.5758H4.69535V10.847V11.1521C4.69535 11.4911 5.00043 11.83 5.37331 11.83C5.74619 11.83 6.05127 11.5249 6.05127 11.1521V10.5419H6.32245H6.62754C6.96652 10.5419 7.3055 10.2368 7.3055 9.86395C7.3055 9.52497 7.03431 9.18599 6.62754 9.18599Z" fill="white"/>
<path d="M16.356 4.23727V3.52541C16.356 2.67796 15.678 2 14.8306 2H13.5763C12.7289 2 12.0509 2.67796 12.0509 3.52541V4.03388H7.94909V3.52541C7.94909 2.67796 7.27113 2 6.42368 2H5.16945C4.322 2 3.64404 2.67796 3.64404 3.52541V4.23727C2.08474 4.77964 1 6.23725 1 7.96605V13.3556C1 15.5251 2.7627 17.2537 4.89808 17.2537C6.45738 17.2537 7.71161 15.9995 7.71161 14.4402C7.71161 14.3724 7.7794 14.3046 7.8472 14.3046H12.1521C12.2198 14.3046 12.2876 14.3724 12.2876 14.4402C12.2876 15.9995 13.5419 17.2537 15.1012 17.2537C17.2706 17.2537 18.9993 15.491 18.9993 13.3556V7.96605C19.0331 6.23725 17.9145 4.77964 16.3552 4.23727H16.356ZM13.4408 3.52541C13.4408 3.42372 13.5086 3.35592 13.6102 3.35592H14.8645C14.9662 3.35592 15.034 3.42372 15.034 3.52541V4.03388H13.4408V3.52541ZM5.03405 3.52541C5.03405 3.42372 5.10185 3.35592 5.20354 3.35592H6.45777C6.55946 3.35592 6.62726 3.42372 6.62726 3.52541V4.03388H5.03405V3.52541ZM17.6782 13.3558C17.6782 14.7795 16.5257 15.8982 15.1358 15.8982C14.3223 15.8982 13.6782 15.2541 13.6782 14.4406C13.6782 13.627 13.0003 12.9491 12.1867 12.9491H7.88187C7.06832 12.9491 6.39036 13.627 6.39036 14.4406C6.39036 15.2541 5.7463 15.8982 4.93275 15.8982C3.50903 15.8982 2.3904 14.7456 2.3904 13.3558V7.96624C2.3904 6.54252 3.54293 5.38999 4.96665 5.38999H15.0682C16.492 5.38999 17.6445 6.54252 17.6445 7.96624V13.3558H17.6782Z" fill="white"/>
<path d="M11.1018 9.18604H9.20354H8.93235C8.59337 9.18604 8.25439 9.49112 8.25439 9.86399C8.25439 10.2369 8.55948 10.542 8.93235 10.542H10.8306H11.1018C11.4408 10.542 11.7798 10.2369 11.7798 9.86399C11.7798 9.52502 11.4747 9.18604 11.1018 9.18604Z" fill="white"/>
</svg>
