<svg width="21" height="20" viewBox="0 0 21 20" fill="none" xmlns="http://www.w3.org/2000/svg">
<path d="M16.174 7.38416C14.9579 7.38416 14.0078 8.37225 14.0078 9.55037C14.0078 10.7665 14.9959 11.7166 16.174 11.7166C17.3521 11.7166 18.3402 10.7285 18.3402 9.55037C18.3402 8.37225 17.3901 7.38416 16.174 7.38416ZM16.174 10.2344C15.832 10.2344 15.528 9.93041 15.528 9.58837C15.528 9.24634 15.832 8.94231 16.174 8.94231C16.5161 8.94231 16.8201 9.24634 16.8201 9.58837C16.8201 9.93041 16.5541 10.2344 16.174 10.2344Z" fill="white"/>
<path d="M7.12891 9.05641H6.44484V8.75238V8.41034C6.44484 8.03031 6.10281 7.65027 5.68477 7.65027C5.26673 7.65027 4.92469 7.9923 4.92469 8.41034V9.09441H4.62066H4.27863C3.89859 9.09441 3.51855 9.43644 3.51855 9.85449C3.51855 10.2725 3.86059 10.6146 4.27863 10.6146H4.9627V10.9186V11.2606C4.9627 11.6407 5.30473 12.0207 5.72277 12.0207C6.14081 12.0207 6.48285 11.6787 6.48285 11.2606V10.5766H6.78688H7.12891C7.50895 10.5766 7.88899 10.2345 7.88899 9.81648C7.88899 9.43644 7.58496 9.05641 7.12891 9.05641Z" fill="white"/>
<path d="M18.0357 3.50825V2.71017C18.0357 1.76008 17.2757 1 16.3256 1H14.9194C13.9693 1 13.2093 1.76008 13.2093 2.71017V3.28023H8.61059V2.71017C8.61059 1.76008 7.85052 1 6.90042 1H5.49429C4.54419 1 3.78412 1.76008 3.78412 2.71017V3.50825C2.03594 4.11631 0.819824 5.75047 0.819824 7.68866V13.731C0.819824 16.1633 2.79602 18.1013 5.19004 18.1013C6.93821 18.1013 8.34435 16.6951 8.34435 14.9469C8.34435 14.8709 8.42036 14.7949 8.49636 14.7949H13.3226C13.3986 14.7949 13.4746 14.8709 13.4746 14.9469C13.4746 16.6951 14.8808 18.1013 16.6289 18.1013C19.0612 18.1013 20.9992 16.1251 20.9992 13.731V7.68866C21.0372 5.75047 19.783 4.11631 18.0349 3.50825H18.0357ZM14.7674 2.71017C14.7674 2.59616 14.8434 2.52015 14.9574 2.52015H16.3636C16.4776 2.52015 16.5536 2.59616 16.5536 2.71017V3.28023H14.7674V2.71017ZM5.34249 2.71017C5.34249 2.59616 5.41849 2.52015 5.53251 2.52015H6.93864C7.05266 2.52015 7.12866 2.59616 7.12866 2.71017V3.28023H5.34249V2.71017ZM19.5181 13.7313C19.5181 15.3274 18.226 16.5815 16.6678 16.5815C15.7557 16.5815 15.0337 15.8595 15.0337 14.9474C15.0337 14.0353 14.2736 13.2752 13.3615 13.2752H8.53524C7.62315 13.2752 6.86307 14.0353 6.86307 14.9474C6.86307 15.8595 6.141 16.5815 5.22891 16.5815C3.63275 16.5815 2.37863 15.2894 2.37863 13.7313V7.68888C2.37863 6.09272 3.67076 4.80059 5.26691 4.80059H16.592C18.1882 4.80059 19.4803 6.09272 19.4803 7.68888V13.7313H19.5181Z" fill="white"/>
<path d="M12.1454 9.0564H10.0172H9.7132C9.33316 9.0564 8.95312 9.39843 8.95312 9.81647C8.95312 10.2345 9.29516 10.5765 9.7132 10.5765H11.8414H12.1454C12.5255 10.5765 12.9055 10.2345 12.9055 9.81647C12.9055 9.43643 12.5635 9.0564 12.1454 9.0564Z" fill="white"/>
</svg>
