<svg width="20" height="20" viewBox="0 0 20 20" fill="none" xmlns="http://www.w3.org/2000/svg">
<path fill-rule="evenodd" clip-rule="evenodd" d="M9.1333 1.99011C9.70036 1.83323 10.2994 1.83323 10.8664 1.99011C11.1509 2.06882 11.4494 2.21697 11.8693 2.50519C12.2971 2.79878 12.8075 3.2065 13.5294 3.78404L15.4627 5.33071C16.3773 6.06241 16.7206 6.34508 16.9646 6.68166C17.1931 6.99688 17.3631 7.3506 17.4665 7.72595C17.5769 8.12672 17.5832 8.57132 17.5832 9.74262V11.9333C17.5832 13.0658 17.5826 13.87 17.5312 14.4994C17.4805 15.12 17.3841 15.5043 17.229 15.8088C16.9174 16.4203 16.4202 16.9175 15.8087 17.2291C15.5042 17.3842 15.1199 17.4806 14.4993 17.5313C14.1467 17.5601 13.7392 17.5729 13.2499 17.5787V12.5L13.2499 12.4267V12.4267C13.2501 12.0339 13.2502 11.731 13.197 11.4635C12.98 10.3726 12.1273 9.51979 11.0364 9.30279C10.7688 9.24958 10.4659 9.24973 10.0731 9.24993L9.99986 9.24995L9.92658 9.24993C9.53385 9.24973 9.23086 9.24958 8.96336 9.30279C7.87246 9.51979 7.01969 10.3726 6.8027 11.4635C6.74949 11.731 6.74964 12.034 6.74983 12.4267L6.74986 12.5V17.5787C6.26051 17.5729 5.85301 17.5601 5.5004 17.5313C4.87978 17.4806 4.49553 17.3842 4.19105 17.2291C3.57953 16.9175 3.08234 16.4203 2.77075 15.8088C2.61561 15.5043 2.51924 15.12 2.46853 14.4994C2.41711 13.87 2.41652 13.0658 2.41652 11.9333V9.74262C2.41652 8.57132 2.42284 8.12672 2.53324 7.72595C2.63665 7.3506 2.80665 6.99688 3.03516 6.68166C3.27913 6.34508 3.62236 6.06242 4.537 5.33071L6.47033 3.78404C7.19226 3.2065 7.70265 2.79878 8.13037 2.50519C8.55029 2.21697 8.84879 2.06882 9.1333 1.99011ZM7.47794 19.083C7.48522 19.0832 7.49253 19.0833 7.49986 19.0833C7.50628 19.0833 7.51269 19.0832 7.51908 19.083C7.68474 19.0833 7.85613 19.0833 8.0335 19.0833H8.06652H11.9332H11.9662C12.1436 19.0833 12.315 19.0833 12.4806 19.083C12.487 19.0832 12.4934 19.0833 12.4999 19.0833C12.5072 19.0833 12.5145 19.0832 12.5218 19.083C13.3576 19.0815 14.0465 19.0733 14.6215 19.0263C15.3348 18.968 15.9385 18.8464 16.4896 18.5656C17.3834 18.1102 18.1101 17.3835 18.5655 16.4897C18.8463 15.9386 18.9679 15.3349 19.0262 14.6216C19.0832 13.9239 19.0832 13.0584 19.0832 11.9663V11.9333V9.74262L19.0832 9.6339V9.63388C19.0834 8.60856 19.0835 7.94807 18.9126 7.32756C18.7615 6.77897 18.513 6.262 18.179 5.80129C17.8013 5.28018 17.2854 4.86767 16.4847 4.22731L16.3998 4.15941L14.4664 2.61274L14.4439 2.59473L14.4439 2.59471C13.7495 2.03923 13.1966 1.59684 12.7182 1.26849C12.2269 0.931254 11.7731 0.684585 11.2664 0.544408C10.4376 0.315132 9.56212 0.315132 8.73336 0.544408C8.22666 0.684585 7.77283 0.931254 7.28151 1.26849C6.80314 1.59684 6.25015 2.03924 5.55578 2.59474L5.53329 2.61274L3.59995 4.15941L3.51506 4.2273L3.51506 4.2273C2.71428 4.86767 2.19843 5.28018 1.82068 5.80129C1.48671 6.262 1.23824 6.77897 1.08711 7.32756C0.916174 7.94807 0.916305 8.60857 0.916508 9.63391L0.916522 9.74262V11.9333L0.916522 11.9663C0.916516 13.0584 0.916512 13.9239 0.97351 14.6216C1.0318 15.3349 1.1534 15.9386 1.43424 16.4897C1.88964 17.3835 2.6163 18.1102 3.51007 18.5656C4.06124 18.8464 4.66487 18.968 5.37826 19.0263C5.95317 19.0733 6.6421 19.0815 7.47794 19.083ZM11.7499 17.5833H8.24986V12.5C8.24986 11.9993 8.25349 11.8586 8.27387 11.7561C8.37251 11.2602 8.76013 10.8726 9.25599 10.774C9.35848 10.7536 9.49925 10.75 9.99986 10.75C10.5005 10.75 10.6412 10.7536 10.7437 10.774C11.2396 10.8726 11.6272 11.2602 11.7258 11.7561C11.7462 11.8586 11.7499 11.9993 11.7499 12.5V17.5833Z" fill="white"/>
</svg>
