<svg width="24" height="24" viewBox="0 0 24 24" fill="none" xmlns="http://www.w3.org/2000/svg">
<path fill-rule="evenodd" clip-rule="evenodd" d="M12 1.25C7.16751 1.25 3.25 5.16751 3.25 10V14C3.25 18.8325 7.16751 22.75 12 22.75C16.8325 22.75 20.75 18.8325 20.75 14V10C20.75 7.93147 20.0313 6.02875 18.8306 4.5309C18.5715 4.20771 18.0995 4.15574 17.7763 4.41481C17.4531 4.67389 17.4011 5.14591 17.6602 5.4691C18.6553 6.71044 19.25 8.28474 19.25 10V14C19.25 18.0041 16.0041 21.25 12 21.25C7.99594 21.25 4.75 18.0041 4.75 14V10C4.75 5.99594 7.99594 2.75 12 2.75C12.9628 2.75 13.88 2.93729 14.7186 3.27672C15.1025 3.43214 15.5398 3.24688 15.6952 2.86293C15.8506 2.47898 15.6654 2.04174 15.2814 1.88632C14.2671 1.47573 13.159 1.25 12 1.25ZM12.75 8C12.75 7.58579 12.4142 7.25 12 7.25C11.5858 7.25 11.25 7.58579 11.25 8V10C11.25 10.4142 11.5858 10.75 12 10.75C12.4142 10.75 12.75 10.4142 12.75 10V8Z" fill="white"/>
</svg>
