<svg width="21" height="20" viewBox="0 0 21 20" fill="none" xmlns="http://www.w3.org/2000/svg">
<path fill-rule="evenodd" clip-rule="evenodd" d="M10.4998 3.41663C10.9141 3.41663 11.2498 3.75241 11.2498 4.16663V9.24996H16.3332C16.7474 9.24996 17.0832 9.58575 17.0832 9.99996C17.0832 10.4142 16.7474 10.75 16.3332 10.75H11.2498V15.8333C11.2498 16.2475 10.9141 16.5833 10.4998 16.5833C10.0856 16.5833 9.74984 16.2475 9.74984 15.8333V10.75H4.6665C4.25229 10.75 3.9165 10.4142 3.9165 9.99996C3.9165 9.58575 4.25229 9.24996 4.6665 9.24996H9.74984V4.16663C9.74984 3.75241 10.0856 3.41663 10.4998 3.41663Z" fill="white"/>
</svg>
