<svg width="20" height="20" viewBox="0 0 20 20" fill="none" xmlns="http://www.w3.org/2000/svg">
<path fill-rule="evenodd" clip-rule="evenodd" d="M9.19344 0.916632L9.16239 0.916632C8.1714 0.916626 7.38411 0.916622 6.74518 0.966413C6.09032 1.01745 5.53318 1.1239 5.01394 1.36802C4.16825 1.76562 3.45863 2.40384 2.9739 3.20278C2.67629 3.69332 2.51157 4.2361 2.39163 4.8819C2.27461 5.51199 2.19144 6.29488 2.08674 7.28033L2.08346 7.3112L1.67262 11.1779L1.66894 11.2125C1.54188 12.4084 1.44146 13.3535 1.42539 14.1165C1.409 14.8946 1.47684 15.5579 1.73379 16.1705C2.1484 17.159 2.88518 17.9782 3.82435 18.495C4.40639 18.8152 5.05879 18.9528 5.83434 19.0187C6.59476 19.0833 7.54518 19.0833 8.74773 19.0833H8.74779H8.78261H11.2172H11.252H11.2521C12.4547 19.0833 13.4051 19.0833 14.1655 19.0187C14.941 18.9528 15.5934 18.8152 16.1755 18.495C17.1147 17.9782 17.8514 17.159 18.266 16.1705C18.523 15.5579 18.5908 14.8946 18.5744 14.1165C18.5584 13.3534 18.4579 12.4083 18.3309 11.2125L18.3272 11.1779L17.9164 7.3112L17.9131 7.2803C17.8084 6.29486 17.7252 5.51199 17.6082 4.8819C17.4883 4.2361 17.3235 3.69332 17.0259 3.20278C16.5412 2.40384 15.8316 1.76562 14.9859 1.36802C14.4667 1.1239 13.9095 1.01745 13.2546 0.966413C12.6157 0.916622 11.8284 0.916626 10.8374 0.916632L10.8064 0.916632H9.19344ZM5.65215 2.72547C5.9414 2.58948 6.29715 2.50588 6.86172 2.46188C7.43556 2.41716 8.16445 2.41663 9.19344 2.41663H10.8064C11.8354 2.41663 12.5643 2.41716 13.1381 2.46188C13.7027 2.50588 14.0584 2.58948 14.3477 2.72547C14.9263 2.99752 15.4118 3.43419 15.7435 3.98084C15.9093 4.25411 16.03 4.59904 16.1334 5.15579C16.2385 5.72169 16.316 6.44646 16.4248 7.46968L16.8356 11.3363C16.9672 12.5745 17.0602 13.4563 17.0748 14.148C17.0892 14.832 17.0234 15.2552 16.8828 15.5903C16.5991 16.2667 16.095 16.8272 15.4524 17.1808C15.134 17.356 14.7201 17.4661 14.0385 17.5241C13.349 17.5827 12.4623 17.5833 11.2172 17.5833H8.78261C7.5375 17.5833 6.65081 17.5827 5.96137 17.5241C5.27972 17.4661 4.86585 17.356 4.54743 17.1808C3.90484 16.8272 3.40072 16.2667 3.11704 15.5903C2.97647 15.2552 2.91065 14.832 2.92505 14.148C2.93962 13.4563 3.03268 12.5745 3.16423 11.3363L3.57506 7.46968C3.68378 6.44646 3.76132 5.7217 3.86641 5.15579C3.96981 4.59904 4.09054 4.25411 4.25633 3.98084C4.58799 3.43419 5.07352 2.99752 5.65215 2.72547ZM8.25002 7.49996C8.25002 8.46646 9.03352 9.24996 10 9.24996C10.9665 9.24996 11.75 8.46646 11.75 7.49996V5.8333C11.75 5.41909 12.0858 5.0833 12.5 5.0833C12.9142 5.0833 13.25 5.41909 13.25 5.8333V7.49996C13.25 9.29489 11.7949 10.75 10 10.75C8.20509 10.75 6.75002 9.29489 6.75002 7.49996V5.8333C6.75002 5.41909 7.0858 5.0833 7.50002 5.0833C7.91423 5.0833 8.25002 5.41909 8.25002 5.8333V7.49996Z" fill="white"/>
</svg>
