<svg width="20" height="20" viewBox="0 0 20 20" fill="none" xmlns="http://www.w3.org/2000/svg">
<path fill-rule="evenodd" clip-rule="evenodd" d="M3.7 2.8C3.20299 2.8 2.8 3.20299 2.8 3.7V16.3C2.8 16.797 3.20299 17.2 3.7 17.2H16.3C16.797 17.2 17.2 16.797 17.2 16.3V3.7C17.2 3.20299 16.797 2.8 16.3 2.8H3.7ZM3.7 1H16.3C17.7912 1 19 2.20878 19 3.7V16.3C19 17.7912 17.7912 19 16.3 19H3.7C2.20878 19 1 17.7912 1 16.3V3.7C1 2.20878 2.20878 1 3.7 1Z" fill="white"/>
<path fill-rule="evenodd" clip-rule="evenodd" d="M6.3999 1.9C6.3999 1.40299 6.80289 1 7.2999 1C7.79691 1 8.1999 1.40299 8.1999 1.9V18.1C8.1999 18.597 7.79691 19 7.2999 19C6.80289 19 6.3999 18.597 6.3999 18.1V1.9Z" fill="white"/>
</svg>
