<svg width="24" height="24" viewBox="0 0 24 24" fill="none" xmlns="http://www.w3.org/2000/svg">
<circle cx="12" cy="12" r="10.5" fill="url(#paint0_linear_71_68)"/>
<path d="M10.0805 18C8.57852 18 7.17844 17.55 6 16.7736C7.00053 16.8402 8.76625 16.6805 9.86452 15.6014C8.21236 15.5233 7.46726 14.2181 7.37008 13.6602C7.51046 13.716 8.17996 13.783 8.55791 13.6268C6.65738 13.1359 6.36582 11.4179 6.43061 10.8935C6.78696 11.1501 7.39168 11.2394 7.62924 11.217C5.8583 9.91176 6.4954 7.94828 6.80856 7.52434C8.07945 9.33806 9.98413 10.3567 12.3405 10.4134C12.296 10.2126 12.2726 10.0037 12.2726 9.78905C12.2726 8.2487 13.4812 7 14.9722 7C15.7512 7 16.4531 7.34088 16.9459 7.88614C17.4664 7.76049 18.2499 7.46634 18.6329 7.21197C18.4398 7.92596 17.8388 8.52158 17.4752 8.74234C17.4783 8.74985 17.4723 8.7348 17.4752 8.74234C17.7946 8.69258 18.6587 8.52152 19 8.28296C18.8312 8.68408 18.194 9.351 17.6711 9.72438C17.7684 14.1443 14.4855 18 10.0805 18Z" fill="white"/>
<defs>
<linearGradient id="paint0_linear_71_68" x1="23" y1="-7" x2="4.5" y2="19" gradientUnits="userSpaceOnUse">
<stop stop-color="#47ACDF"/>
<stop offset="1" stop-color="#41B7F2"/>
</linearGradient>
</defs>
</svg>
