<svg width="20" height="20" viewBox="0 0 20 20" fill="none" xmlns="http://www.w3.org/2000/svg">
<g clip-path="url(#clip0_162_108)">
<path d="M10 20C15.5229 20 20 15.5229 20 10C20 4.47715 15.5229 0 10 0C4.47715 0 0 4.47715 0 10C0 15.5229 4.47715 20 10 20Z" fill="#8247E5"/>
<path d="M12.2143 11.0501C12.2143 9.76754 11.4494 9.32781 9.91956 9.14461C8.8269 8.99801 8.6083 8.70488 8.6083 8.19174C8.6083 7.67861 8.97256 7.34888 9.70103 7.34888C10.3566 7.34888 10.7209 7.56881 10.903 8.11848C10.9395 8.22841 11.0488 8.30168 11.158 8.30168H11.7407C11.8864 8.30168 11.9957 8.19174 11.9957 8.04521V8.00854C11.85 7.20228 11.1944 6.57936 10.3566 6.5061V5.62658C10.3566 5.47996 10.2474 5.37002 10.0653 5.33334H9.51896C9.37323 5.33334 9.26396 5.44328 9.2275 5.62658V6.46941C8.13476 6.61603 7.44283 7.34888 7.44283 8.26508C7.44283 9.47441 8.17123 9.95074 9.70103 10.1341C10.7209 10.3173 11.0488 10.5371 11.0488 11.1235C11.0488 11.7099 10.5388 12.1129 9.84676 12.1129C8.8997 12.1129 8.5719 11.7098 8.46263 11.1601C8.42623 11.0135 8.31696 10.9402 8.2077 10.9402H7.58843C7.44283 10.9402 7.3335 11.0501 7.3335 11.1967V11.2335C7.47916 12.1495 8.06196 12.8092 9.26396 12.9925V13.872C9.26396 14.0185 9.37323 14.1285 9.5553 14.1651H10.1017C10.2474 14.1651 10.3566 14.0552 10.3931 13.872V12.9925C11.4858 12.8092 12.2143 12.0396 12.2143 11.0501Z" fill="white"/>
<path d="M8.06483 14.7919C5.21481 13.7669 3.75323 10.5819 4.81291 7.76301C5.36099 6.2254 6.56677 5.05394 8.06483 4.5048C8.21103 4.43162 8.28403 4.32179 8.28403 4.13868V3.62618C8.28403 3.47972 8.21103 3.3699 8.06483 3.33334C8.02823 3.33334 7.95523 3.33334 7.91863 3.3699C4.4475 4.46816 2.54746 8.16574 3.64362 11.6435C4.30131 13.6936 5.8725 15.2679 7.91863 15.9268C8.06483 16 8.21103 15.9268 8.2475 15.7803C8.28403 15.7438 8.28403 15.7071 8.28403 15.634V15.1214C8.28403 15.0115 8.17443 14.8652 8.06483 14.7919ZM11.938 3.3699C11.7918 3.2967 11.6456 3.3699 11.6091 3.51636C11.5726 3.553 11.5726 3.58955 11.5726 3.66282V4.17532C11.5726 4.32179 11.6822 4.46816 11.7918 4.54144C14.6418 5.56644 16.1034 8.75141 15.0437 11.5703C14.4956 13.1079 13.2898 14.2794 11.7918 14.8285C11.6456 14.9017 11.5726 15.0115 11.5726 15.1947V15.7071C11.5726 15.8536 11.6456 15.9635 11.7918 16C11.8284 16 11.9014 16 11.938 15.9635C15.4091 14.8652 17.3092 11.1676 16.213 7.68981C15.5553 5.60308 13.9475 4.02886 11.938 3.3699Z" fill="white"/>
</g>
<defs>
<clipPath id="clip0_162_108">
<rect width="20" height="20" fill="white"/>
</clipPath>
</defs>
</svg>
